<svg xmlns="http://www.w3.org/2000/svg" viewBox="0 0 520 120" role="img" aria-labelledby="title desc">
  <title id="title">PipeFix logo</title>
  <desc id="desc">PipeFix CZ logo with gradient wrench icon and brand text.</desc>
  <defs>
    <linearGradient id="pipefixBlue" x1="0%" y1="0%" x2="100%" y2="100%">
      <stop offset="0%" stop-color="#22b6ff"/>
      <stop offset="100%" stop-color="#1d7ff2"/>
    </linearGradient>
  </defs>

  <g transform="translate(12 16)">
    <rect x="0" y="0" width="88" height="88" rx="18" fill="#0f1829"/>
    <path d="M58 18c-5 0-9 1-13 4l8 8-8 8-8-8c-3 4-4 8-4 13 0 12 10 22 22 22 5 0 9-1 13-4l15 15 7-7-15-15c3-4 4-8 4-13 0-12-10-22-21-22z"
      fill="url(#pipefixBlue)"/>
  </g>

  <text x="116" y="64" fill="#ffffff" font-size="54" font-family="Montserrat, Arial, sans-serif" font-weight="800" letter-spacing="0.5">PipeFix</text>
  <text x="118" y="93" fill="#8db8e8" font-size="18" font-family="Montserrat, Arial, sans-serif" font-weight="600" letter-spacing="4">CZ</text>
</svg>
